<mxfile host="app.diagrams.net" modified="2023-12-04T15:51:46.189Z" agent="Mozilla/5.0 (Windows NT 10.0; Win64; x64; rv:120.0) Gecko/20100101 Firefox/120.0" etag="y8XpJsWHqjM-4GzmnKtH" version="22.1.5" type="github">
  <diagram name="Page-1" id="3w2cyTi5Xr405L9pnLBw">
    <mxGraphModel dx="1434" dy="746" grid="1" gridSize="10" guides="1" tooltips="1" connect="1" arrows="1" fold="1" page="1" pageScale="1" pageWidth="850" pageHeight="1100" math="0" shadow="0">
      <root>
        <mxCell id="0" />
        <mxCell id="1" parent="0" />
        <mxCell id="_DITC9KswRP_1d-FKcaZ-1" value="&lt;b&gt;&lt;font style=&quot;font-size: 14px;&quot;&gt;ABSTERGO SI - Vue Écosystème &lt;/font&gt;&lt;/b&gt;" style="rounded=0;whiteSpace=wrap;html=1;verticalAlign=top;align=center;fillColor=#cce5ff;strokeColor=#36393d;movable=1;resizable=1;rotatable=1;deletable=1;editable=1;locked=0;connectable=1;" vertex="1" parent="1">
          <mxGeometry x="40" y="40" width="800" height="780" as="geometry" />
        </mxCell>
        <mxCell id="_DITC9KswRP_1d-FKcaZ-2" value="&lt;b&gt;Systèmes&lt;/b&gt;" style="rounded=0;whiteSpace=wrap;html=1;verticalAlign=top;align=center;movable=1;resizable=1;rotatable=1;deletable=1;editable=1;locked=0;connectable=1;fillColor=#eeeeee;strokeColor=#36393d;" vertex="1" parent="1">
          <mxGeometry x="80" y="100" width="250" height="150" as="geometry" />
        </mxCell>
        <mxCell id="_DITC9KswRP_1d-FKcaZ-4" value="" style="rounded=0;whiteSpace=wrap;html=1;fillColor=#eeeeee;strokeColor=#36393d;verticalAlign=top;fontStyle=1;movable=1;resizable=1;rotatable=1;deletable=1;editable=1;locked=0;connectable=1;" vertex="1" parent="1">
          <mxGeometry x="80" y="280" width="730" height="490" as="geometry" />
        </mxCell>
        <mxCell id="_DITC9KswRP_1d-FKcaZ-15" style="edgeStyle=orthogonalEdgeStyle;rounded=0;orthogonalLoop=1;jettySize=auto;html=1;exitX=0;exitY=0.5;exitDx=0;exitDy=0;startArrow=classic;startFill=1;endArrow=none;endFill=0;" edge="1" parent="1" source="_DITC9KswRP_1d-FKcaZ-5">
          <mxGeometry relative="1" as="geometry">
            <mxPoint x="160" y="365" as="targetPoint" />
          </mxGeometry>
        </mxCell>
        <mxCell id="_DITC9KswRP_1d-FKcaZ-5" value="Direction" style="rounded=1;whiteSpace=wrap;html=1;movable=1;resizable=1;rotatable=1;deletable=1;editable=1;locked=0;connectable=1;" vertex="1" parent="1">
          <mxGeometry x="210" y="370" width="100" height="50" as="geometry" />
        </mxCell>
        <mxCell id="_DITC9KswRP_1d-FKcaZ-16" style="edgeStyle=orthogonalEdgeStyle;rounded=0;orthogonalLoop=1;jettySize=auto;html=1;startArrow=classic;startFill=1;endArrow=none;endFill=0;" edge="1" parent="1" source="_DITC9KswRP_1d-FKcaZ-6">
          <mxGeometry relative="1" as="geometry">
            <mxPoint x="160" y="455" as="targetPoint" />
          </mxGeometry>
        </mxCell>
        <mxCell id="_DITC9KswRP_1d-FKcaZ-6" value="Administratif" style="rounded=1;whiteSpace=wrap;html=1;movable=1;resizable=1;rotatable=1;deletable=1;editable=1;locked=0;connectable=1;" vertex="1" parent="1">
          <mxGeometry x="210" y="470" width="100" height="50" as="geometry" />
        </mxCell>
        <mxCell id="_DITC9KswRP_1d-FKcaZ-17" style="edgeStyle=orthogonalEdgeStyle;rounded=0;orthogonalLoop=1;jettySize=auto;html=1;startArrow=classic;startFill=1;endArrow=none;endFill=0;" edge="1" parent="1" source="_DITC9KswRP_1d-FKcaZ-7">
          <mxGeometry relative="1" as="geometry">
            <mxPoint x="160" y="555" as="targetPoint" />
          </mxGeometry>
        </mxCell>
        <mxCell id="_DITC9KswRP_1d-FKcaZ-7" value="Production" style="rounded=1;whiteSpace=wrap;html=1;movable=1;resizable=1;rotatable=1;deletable=1;editable=1;locked=0;connectable=1;" vertex="1" parent="1">
          <mxGeometry x="210" y="570" width="100" height="50" as="geometry" />
        </mxCell>
        <mxCell id="_DITC9KswRP_1d-FKcaZ-19" style="edgeStyle=orthogonalEdgeStyle;rounded=0;orthogonalLoop=1;jettySize=auto;html=1;entryX=0.5;entryY=1;entryDx=0;entryDy=0;startArrow=classic;startFill=1;endArrow=none;endFill=0;" edge="1" parent="1" source="_DITC9KswRP_1d-FKcaZ-8" target="_DITC9KswRP_1d-FKcaZ-14">
          <mxGeometry relative="1" as="geometry" />
        </mxCell>
        <mxCell id="_DITC9KswRP_1d-FKcaZ-8" value="Commercial" style="rounded=1;whiteSpace=wrap;html=1;movable=1;resizable=1;rotatable=1;deletable=1;editable=1;locked=0;connectable=1;" vertex="1" parent="1">
          <mxGeometry x="210" y="680" width="100" height="50" as="geometry" />
        </mxCell>
        <mxCell id="_DITC9KswRP_1d-FKcaZ-14" value="Flux " style="text;html=1;strokeColor=none;fillColor=none;align=center;verticalAlign=middle;whiteSpace=wrap;rounded=0;" vertex="1" parent="1">
          <mxGeometry x="130" y="290" width="60" height="30" as="geometry" />
        </mxCell>
        <mxCell id="_DITC9KswRP_1d-FKcaZ-20" value="R&amp;amp;D (Lyon)" style="rounded=1;whiteSpace=wrap;html=1;" vertex="1" parent="1">
          <mxGeometry x="400" y="410" width="100" height="50" as="geometry" />
        </mxCell>
      </root>
    </mxGraphModel>
  </diagram>
</mxfile>
